<svg xmlns="http://www.w3.org/2000/svg" viewBox="0 0 64 64" role="img" aria-label="CreativeHub">
  <defs>
    <linearGradient id="g" x1="10" y1="8" x2="54" y2="56" gradientUnits="userSpaceOnUse">
      <stop stop-color="#7C5CFF"/>
      <stop offset="1" stop-color="#5B8CFF"/>
    </linearGradient>
  </defs>
  <rect width="64" height="64" rx="18" fill="#111827"/>
  <rect x="6" y="6" width="52" height="52" rx="15" fill="url(#g)"/>
  <path d="M25.7 39.8c-2 1.8-4.5 2.8-7.4 2.8-6.1 0-10.6-4.3-10.6-10.6 0-6.2 4.5-10.6 10.6-10.6 2.9 0 5.4 1 7.3 2.7l-3.1 4.1c-1.1-1.1-2.4-1.7-4-1.7-2.9 0-4.9 2.2-4.9 5.5s2 5.5 4.9 5.5c1.7 0 3-.6 4.1-1.8l3.1 4.1Z" fill="#fff"/>
  <path d="M31.1 21.9h5.8v7.4h7.2v-7.4h5.8v20.2h-5.8v-7.6h-7.2v7.6h-5.8V21.9Z" fill="#fff"/>
</svg>
